<?xml version="1.0" encoding="utf-8" standalone="no"?>
<!DOCTYPE svg PUBLIC "-//W3C//DTD SVG 1.1//EN"
  "http://www.w3.org/Graphics/SVG/1.1/DTD/svg11.dtd">
<!-- Created with matplotlib (https://matplotlib.org/) -->
<svg height="487.892027pt" version="1.1" viewBox="0 0 561.943071 487.892027" width="561.943071pt" xmlns="http://www.w3.org/2000/svg" xmlns:xlink="http://www.w3.org/1999/xlink">
 <metadata>
  <rdf:RDF xmlns:cc="http://creativecommons.org/ns#" xmlns:dc="http://purl.org/dc/elements/1.1/" xmlns:rdf="http://www.w3.org/1999/02/22-rdf-syntax-ns#">
   <cc:Work>
    <dc:type rdf:resource="http://purl.org/dc/dcmitype/StillImage"/>
    <dc:date>2020-10-31T18:43:58.548033</dc:date>
    <dc:format>image/svg+xml</dc:format>
    <dc:creator>
     <cc:Agent>
      <dc:title>Matplotlib v3.3.2, https://matplotlib.org/</dc:title>
     </cc:Agent>
    </dc:creator>
   </cc:Work>
  </rdf:RDF>
 </metadata>
 <defs>
  <style type="text/css">*{stroke-linecap:butt;stroke-linejoin:round;}</style>
 </defs>
 <g id="figure_1">
  <g id="patch_1">
   <path d="M 0 487.892027 
L 561.943071 487.892027 
L 561.943071 -0 
L 0 -0 
z
" style="fill:none;"/>
  </g>
  <g id="axes_1">
   <g id="patch_2">
    <path d="M 498.884087 243.946014 
C 498.884087 214.743101 493.13175 185.82415 481.956279 158.844176 
C 470.780808 131.864203 454.399538 107.3479 433.74996 86.698322 
C 413.100382 66.048744 388.584079 49.667474 361.604106 38.492004 
C 334.624133 27.316533 305.705181 21.564196 276.502268 21.564196 
C 247.299356 21.564196 218.380404 27.316533 191.400431 38.492004 
C 164.420458 49.667474 139.904155 66.048744 119.254577 86.698322 
C 98.604999 107.3479 82.223729 131.864203 71.048258 158.844176 
C 59.872787 185.82415 54.12045 214.743101 54.12045 243.946014 
C 54.12045 273.148927 59.872787 302.067878 71.048258 329.047851 
C 82.223729 356.027825 98.604999 380.544128 119.254577 401.193705 
C 139.904155 421.843283 164.420458 438.224553 191.400431 449.400024 
C 218.380404 460.575495 247.299356 466.327832 276.502268 466.327832 
C 305.705181 466.327832 334.624133 460.575495 361.604106 449.400024 
C 388.584079 438.224553 413.100382 421.843283 433.74996 401.193705 
C 454.399538 380.544128 470.780808 356.027825 481.956279 329.047851 
C 493.13175 302.067878 498.884087 273.148927 498.884087 243.946014 
M 276.502268 243.946014 
C 276.502268 243.946014 276.502268 243.946014 276.502268 243.946014 
C 276.502268 243.946014 276.502268 243.946014 276.502268 243.946014 
C 276.502268 243.946014 276.502268 243.946014 276.502268 243.946014 
C 276.502268 243.946014 276.502268 243.946014 276.502268 243.946014 
C 276.502268 243.946014 276.502268 243.946014 276.502268 243.946014 
C 276.502268 243.946014 276.502268 243.946014 276.502268 243.946014 
C 276.502268 243.946014 276.502268 243.946014 276.502268 243.946014 
C 276.502268 243.946014 276.502268 243.946014 276.502268 243.946014 
C 276.502268 243.946014 276.502268 243.946014 276.502268 243.946014 
C 276.502268 243.946014 276.502268 243.946014 276.502268 243.946014 
C 276.502268 243.946014 276.502268 243.946014 276.502268 243.946014 
C 276.502268 243.946014 276.502268 243.946014 276.502268 243.946014 
C 276.502268 243.946014 276.502268 243.946014 276.502268 243.946014 
C 276.502268 243.946014 276.502268 243.946014 276.502268 243.946014 
C 276.502268 243.946014 276.502268 243.946014 276.502268 243.946014 
C 276.502268 243.946014 276.502268 243.946014 276.502268 243.946014 
M 498.884087 243.946014 
z
" style="fill:#ffffff;"/>
   </g>
   <g id="patch_3">
    <path clip-path="url(#p23cc0edd72)" d="M 349.899228 243.946014 
L 352.786309 148.288852 
L 247.986965 119.012305 
L 264.429161 238.131911 
L 244.857028 259.185559 
L 272.859633 259.905441 
L 345.531358 330.505755 
z
" style="fill:#808080;opacity:0.25;"/>
   </g>
   <g id="matplotlib.axis_1">
    <g id="xtick_1">
     <g id="line2d_1">
      <path clip-path="url(#p23cc0edd72)" d="M 276.502268 243.946014 
L 498.884087 243.946014 
" style="fill:none;stroke:#b0b0b0;stroke-linecap:square;stroke-width:0.8;"/>
     </g>
     <g id="text_1">
      <!-- acousticness -->
      <g transform="translate(471.025102 247.533201)scale(0.13 -0.13)">
       <defs>
        <path d="M 34.28125 27.484375 
Q 23.390625 27.484375 19.1875 25 
Q 14.984375 22.515625 14.984375 16.5 
Q 14.984375 11.71875 18.140625 8.90625 
Q 21.296875 6.109375 26.703125 6.109375 
Q 34.1875 6.109375 38.703125 11.40625 
Q 43.21875 16.703125 43.21875 25.484375 
L 43.21875 27.484375 
z
M 52.203125 31.203125 
L 52.203125 0 
L 43.21875 0 
L 43.21875 8.296875 
Q 40.140625 3.328125 35.546875 0.953125 
Q 30.953125 -1.421875 24.3125 -1.421875 
Q 15.921875 -1.421875 10.953125 3.296875 
Q 6 8.015625 6 15.921875 
Q 6 25.140625 12.171875 29.828125 
Q 18.359375 34.515625 30.609375 34.515625 
L 43.21875 34.515625 
L 43.21875 35.40625 
Q 43.21875 41.609375 39.140625 45 
Q 35.0625 48.390625 27.6875 48.390625 
Q 23 48.390625 18.546875 47.265625 
Q 14.109375 46.140625 10.015625 43.890625 
L 10.015625 52.203125 
Q 14.9375 54.109375 19.578125 55.046875 
Q 24.21875 56 28.609375 56 
Q 40.484375 56 46.34375 49.84375 
Q 52.203125 43.703125 52.203125 31.203125 
z
" id="DejaVuSans-97"/>
        <path d="M 48.78125 52.59375 
L 48.78125 44.1875 
Q 44.96875 46.296875 41.140625 47.34375 
Q 37.3125 48.390625 33.40625 48.390625 
Q 24.65625 48.390625 19.8125 42.84375 
Q 14.984375 37.3125 14.984375 27.296875 
Q 14.984375 17.28125 19.8125 11.734375 
Q 24.65625 6.203125 33.40625 6.203125 
Q 37.3125 6.203125 41.140625 7.25 
Q 44.96875 8.296875 48.78125 10.40625 
L 48.78125 2.09375 
Q 45.015625 0.34375 40.984375 -0.53125 
Q 36.96875 -1.421875 32.421875 -1.421875 
Q 20.0625 -1.421875 12.78125 6.34375 
Q 5.515625 14.109375 5.515625 27.296875 
Q 5.515625 40.671875 12.859375 48.328125 
Q 20.21875 56 33.015625 56 
Q 37.15625 56 41.109375 55.140625 
Q 45.0625 54.296875 48.78125 52.59375 
z
" id="DejaVuSans-99"/>
        <path d="M 30.609375 48.390625 
Q 23.390625 48.390625 19.1875 42.75 
Q 14.984375 37.109375 14.984375 27.296875 
Q 14.984375 17.484375 19.15625 11.84375 
Q 23.34375 6.203125 30.609375 6.203125 
Q 37.796875 6.203125 41.984375 11.859375 
Q 46.1875 17.53125 46.1875 27.296875 
Q 46.1875 37.015625 41.984375 42.703125 
Q 37.796875 48.390625 30.609375 48.390625 
z
M 30.609375 56 
Q 42.328125 56 49.015625 48.375 
Q 55.71875 40.765625 55.71875 27.296875 
Q 55.71875 13.875 49.015625 6.21875 
Q 42.328125 -1.421875 30.609375 -1.421875 
Q 18.84375 -1.421875 12.171875 6.21875 
Q 5.515625 13.875 5.515625 27.296875 
Q 5.515625 40.765625 12.171875 48.375 
Q 18.84375 56 30.609375 56 
z
" id="DejaVuSans-111"/>
        <path d="M 8.5 21.578125 
L 8.5 54.6875 
L 17.484375 54.6875 
L 17.484375 21.921875 
Q 17.484375 14.15625 20.5 10.265625 
Q 23.53125 6.390625 29.59375 6.390625 
Q 36.859375 6.390625 41.078125 11.03125 
Q 45.3125 15.671875 45.3125 23.6875 
L 45.3125 54.6875 
L 54.296875 54.6875 
L 54.296875 0 
L 45.3125 0 
L 45.3125 8.40625 
Q 42.046875 3.421875 37.71875 1 
Q 33.40625 -1.421875 27.6875 -1.421875 
Q 18.265625 -1.421875 13.375 4.4375 
Q 8.5 10.296875 8.5 21.578125 
z
M 31.109375 56 
z
" id="DejaVuSans-117"/>
        <path d="M 44.28125 53.078125 
L 44.28125 44.578125 
Q 40.484375 46.53125 36.375 47.5 
Q 32.28125 48.484375 27.875 48.484375 
Q 21.1875 48.484375 17.84375 46.4375 
Q 14.5 44.390625 14.5 40.28125 
Q 14.5 37.15625 16.890625 35.375 
Q 19.28125 33.59375 26.515625 31.984375 
L 29.59375 31.296875 
Q 39.15625 29.25 43.1875 25.515625 
Q 47.21875 21.78125 47.21875 15.09375 
Q 47.21875 7.46875 41.1875 3.015625 
Q 35.15625 -1.421875 24.609375 -1.421875 
Q 20.21875 -1.421875 15.453125 -0.5625 
Q 10.6875 0.296875 5.421875 2 
L 5.421875 11.28125 
Q 10.40625 8.6875 15.234375 7.390625 
Q 20.0625 6.109375 24.8125 6.109375 
Q 31.15625 6.109375 34.5625 8.28125 
Q 37.984375 10.453125 37.984375 14.40625 
Q 37.984375 18.0625 35.515625 20.015625 
Q 33.0625 21.96875 24.703125 23.78125 
L 21.578125 24.515625 
Q 13.234375 26.265625 9.515625 29.90625 
Q 5.8125 33.546875 5.8125 39.890625 
Q 5.8125 47.609375 11.28125 51.796875 
Q 16.75 56 26.8125 56 
Q 31.78125 56 36.171875 55.265625 
Q 40.578125 54.546875 44.28125 53.078125 
z
" id="DejaVuSans-115"/>
        <path d="M 18.3125 70.21875 
L 18.3125 54.6875 
L 36.8125 54.6875 
L 36.8125 47.703125 
L 18.3125 47.703125 
L 18.3125 18.015625 
Q 18.3125 11.328125 20.140625 9.421875 
Q 21.96875 7.515625 27.59375 7.515625 
L 36.8125 7.515625 
L 36.8125 0 
L 27.59375 0 
Q 17.1875 0 13.234375 3.875 
Q 9.28125 7.765625 9.28125 18.015625 
L 9.28125 47.703125 
L 2.6875 47.703125 
L 2.6875 54.6875 
L 9.28125 54.6875 
L 9.28125 70.21875 
z
" id="DejaVuSans-116"/>
        <path d="M 9.421875 54.6875 
L 18.40625 54.6875 
L 18.40625 0 
L 9.421875 0 
z
M 9.421875 75.984375 
L 18.40625 75.984375 
L 18.40625 64.59375 
L 9.421875 64.59375 
z
" id="DejaVuSans-105"/>
        <path d="M 54.890625 33.015625 
L 54.890625 0 
L 45.90625 0 
L 45.90625 32.71875 
Q 45.90625 40.484375 42.875 44.328125 
Q 39.84375 48.1875 33.796875 48.1875 
Q 26.515625 48.1875 22.3125 43.546875 
Q 18.109375 38.921875 18.109375 30.90625 
L 18.109375 0 
L 9.078125 0 
L 9.078125 54.6875 
L 18.109375 54.6875 
L 18.109375 46.1875 
Q 21.34375 51.125 25.703125 53.5625 
Q 30.078125 56 35.796875 56 
Q 45.21875 56 50.046875 50.171875 
Q 54.890625 44.34375 54.890625 33.015625 
z
" id="DejaVuSans-110"/>
        <path d="M 56.203125 29.59375 
L 56.203125 25.203125 
L 14.890625 25.203125 
Q 15.484375 15.921875 20.484375 11.0625 
Q 25.484375 6.203125 34.421875 6.203125 
Q 39.59375 6.203125 44.453125 7.46875 
Q 49.3125 8.734375 54.109375 11.28125 
L 54.109375 2.78125 
Q 49.265625 0.734375 44.1875 -0.34375 
Q 39.109375 -1.421875 33.890625 -1.421875 
Q 20.796875 -1.421875 13.15625 6.1875 
Q 5.515625 13.8125 5.515625 26.8125 
Q 5.515625 40.234375 12.765625 48.109375 
Q 20.015625 56 32.328125 56 
Q 43.359375 56 49.78125 48.890625 
Q 56.203125 41.796875 56.203125 29.59375 
z
M 47.21875 32.234375 
Q 47.125 39.59375 43.09375 43.984375 
Q 39.0625 48.390625 32.421875 48.390625 
Q 24.90625 48.390625 20.390625 44.140625 
Q 15.875 39.890625 15.1875 32.171875 
z
" id="DejaVuSans-101"/>
       </defs>
       <use xlink:href="#DejaVuSans-97"/>
       <use x="61.279297" xlink:href="#DejaVuSans-99"/>
       <use x="116.259766" xlink:href="#DejaVuSans-111"/>
       <use x="177.441406" xlink:href="#DejaVuSans-117"/>
       <use x="240.820312" xlink:href="#DejaVuSans-115"/>
       <use x="292.919922" xlink:href="#DejaVuSans-116"/>
       <use x="332.128906" xlink:href="#DejaVuSans-105"/>
       <use x="359.912109" xlink:href="#DejaVuSans-99"/>
       <use x="414.892578" xlink:href="#DejaVuSans-110"/>
       <use x="478.271484" xlink:href="#DejaVuSans-101"/>
       <use x="539.794922" xlink:href="#DejaVuSans-115"/>
       <use x="591.894531" xlink:href="#DejaVuSans-115"/>
      </g>
     </g>
    </g>
    <g id="xtick_2">
     <g id="line2d_2">
      <path clip-path="url(#p23cc0edd72)" d="M 276.502268 243.946014 
L 415.155064 70.080907 
" style="fill:none;stroke:#b0b0b0;stroke-linecap:square;stroke-width:0.8;"/>
     </g>
     <g id="text_2">
      <!-- danceability -->
      <g transform="translate(384.158765 62.722454)scale(0.13 -0.13)">
       <defs>
        <path d="M 45.40625 46.390625 
L 45.40625 75.984375 
L 54.390625 75.984375 
L 54.390625 0 
L 45.40625 0 
L 45.40625 8.203125 
Q 42.578125 3.328125 38.25 0.953125 
Q 33.9375 -1.421875 27.875 -1.421875 
Q 17.96875 -1.421875 11.734375 6.484375 
Q 5.515625 14.40625 5.515625 27.296875 
Q 5.515625 40.1875 11.734375 48.09375 
Q 17.96875 56 27.875 56 
Q 33.9375 56 38.25 53.625 
Q 42.578125 51.265625 45.40625 46.390625 
z
M 14.796875 27.296875 
Q 14.796875 17.390625 18.875 11.75 
Q 22.953125 6.109375 30.078125 6.109375 
Q 37.203125 6.109375 41.296875 11.75 
Q 45.40625 17.390625 45.40625 27.296875 
Q 45.40625 37.203125 41.296875 42.84375 
Q 37.203125 48.484375 30.078125 48.484375 
Q 22.953125 48.484375 18.875 42.84375 
Q 14.796875 37.203125 14.796875 27.296875 
z
" id="DejaVuSans-100"/>
        <path d="M 48.6875 27.296875 
Q 48.6875 37.203125 44.609375 42.84375 
Q 40.53125 48.484375 33.40625 48.484375 
Q 26.265625 48.484375 22.1875 42.84375 
Q 18.109375 37.203125 18.109375 27.296875 
Q 18.109375 17.390625 22.1875 11.75 
Q 26.265625 6.109375 33.40625 6.109375 
Q 40.53125 6.109375 44.609375 11.75 
Q 48.6875 17.390625 48.6875 27.296875 
z
M 18.109375 46.390625 
Q 20.953125 51.265625 25.265625 53.625 
Q 29.59375 56 35.59375 56 
Q 45.5625 56 51.78125 48.09375 
Q 58.015625 40.1875 58.015625 27.296875 
Q 58.015625 14.40625 51.78125 6.484375 
Q 45.5625 -1.421875 35.59375 -1.421875 
Q 29.59375 -1.421875 25.265625 0.953125 
Q 20.953125 3.328125 18.109375 8.203125 
L 18.109375 0 
L 9.078125 0 
L 9.078125 75.984375 
L 18.109375 75.984375 
z
" id="DejaVuSans-98"/>
        <path d="M 9.421875 75.984375 
L 18.40625 75.984375 
L 18.40625 0 
L 9.421875 0 
z
" id="DejaVuSans-108"/>
        <path d="M 32.171875 -5.078125 
Q 28.375 -14.84375 24.75 -17.8125 
Q 21.140625 -20.796875 15.09375 -20.796875 
L 7.90625 -20.796875 
L 7.90625 -13.28125 
L 13.1875 -13.28125 
Q 16.890625 -13.28125 18.9375 -11.515625 
Q 21 -9.765625 23.484375 -3.21875 
L 25.09375 0.875 
L 2.984375 54.6875 
L 12.5 54.6875 
L 29.59375 11.921875 
L 46.6875 54.6875 
L 56.203125 54.6875 
z
" id="DejaVuSans-121"/>
       </defs>
       <use xlink:href="#DejaVuSans-100"/>
       <use x="63.476562" xlink:href="#DejaVuSans-97"/>
       <use x="124.755859" xlink:href="#DejaVuSans-110"/>
       <use x="188.134766" xlink:href="#DejaVuSans-99"/>
       <use x="243.115234" xlink:href="#DejaVuSans-101"/>
       <use x="304.638672" xlink:href="#DejaVuSans-97"/>
       <use x="365.917969" xlink:href="#DejaVuSans-98"/>
       <use x="429.394531" xlink:href="#DejaVuSans-105"/>
       <use x="457.177734" xlink:href="#DejaVuSans-108"/>
       <use x="484.960938" xlink:href="#DejaVuSans-105"/>
       <use x="512.744141" xlink:href="#DejaVuSans-116"/>
       <use x="551.953125" xlink:href="#DejaVuSans-121"/>
      </g>
     </g>
    </g>
    <g id="xtick_3">
     <g id="line2d_3">
      <path clip-path="url(#p23cc0edd72)" d="M 276.502268 243.946014 
L 227.017659 27.139772 
" style="fill:none;stroke:#b0b0b0;stroke-linecap:square;stroke-width:0.8;"/>
     </g>
     <g id="text_3">
      <!-- energy -->
      <g transform="translate(201.251897 17.077969)scale(0.13 -0.13)">
       <defs>
        <path d="M 41.109375 46.296875 
Q 39.59375 47.171875 37.8125 47.578125 
Q 36.03125 48 33.890625 48 
Q 26.265625 48 22.1875 43.046875 
Q 18.109375 38.09375 18.109375 28.8125 
L 18.109375 0 
L 9.078125 0 
L 9.078125 54.6875 
L 18.109375 54.6875 
L 18.109375 46.1875 
Q 20.953125 51.171875 25.484375 53.578125 
Q 30.03125 56 36.53125 56 
Q 37.453125 56 38.578125 55.875 
Q 39.703125 55.765625 41.0625 55.515625 
z
" id="DejaVuSans-114"/>
        <path d="M 45.40625 27.984375 
Q 45.40625 37.75 41.375 43.109375 
Q 37.359375 48.484375 30.078125 48.484375 
Q 22.859375 48.484375 18.828125 43.109375 
Q 14.796875 37.75 14.796875 27.984375 
Q 14.796875 18.265625 18.828125 12.890625 
Q 22.859375 7.515625 30.078125 7.515625 
Q 37.359375 7.515625 41.375 12.890625 
Q 45.40625 18.265625 45.40625 27.984375 
z
M 54.390625 6.78125 
Q 54.390625 -7.171875 48.1875 -13.984375 
Q 42 -20.796875 29.203125 -20.796875 
Q 24.46875 -20.796875 20.265625 -20.09375 
Q 16.0625 -19.390625 12.109375 -17.921875 
L 12.109375 -9.1875 
Q 16.0625 -11.328125 19.921875 -12.34375 
Q 23.78125 -13.375 27.78125 -13.375 
Q 36.625 -13.375 41.015625 -8.765625 
Q 45.40625 -4.15625 45.40625 5.171875 
L 45.40625 9.625 
Q 42.625 4.78125 38.28125 2.390625 
Q 33.9375 0 27.875 0 
Q 17.828125 0 11.671875 7.65625 
Q 5.515625 15.328125 5.515625 27.984375 
Q 5.515625 40.671875 11.671875 48.328125 
Q 17.828125 56 27.875 56 
Q 33.9375 56 38.28125 53.609375 
Q 42.625 51.21875 45.40625 46.390625 
L 45.40625 54.6875 
L 54.390625 54.6875 
z
" id="DejaVuSans-103"/>
       </defs>
       <use xlink:href="#DejaVuSans-101"/>
       <use x="61.523438" xlink:href="#DejaVuSans-110"/>
       <use x="124.902344" xlink:href="#DejaVuSans-101"/>
       <use x="186.425781" xlink:href="#DejaVuSans-114"/>
       <use x="225.789062" xlink:href="#DejaVuSans-103"/>
       <use x="289.265625" xlink:href="#DejaVuSans-121"/>
      </g>
     </g>
    </g>
    <g id="xtick_4">
     <g id="line2d_4">
      <path clip-path="url(#p23cc0edd72)" d="M 276.502268 243.946014 
L 76.143174 147.458159 
" style="fill:none;stroke:#b0b0b0;stroke-linecap:square;stroke-width:0.8;"/>
     </g>
     <g id="text_4">
      <!-- instrumentalness -->
      <g transform="translate(7.2 144.970974)scale(0.13 -0.13)">
       <defs>
        <path d="M 52 44.1875 
Q 55.375 50.25 60.0625 53.125 
Q 64.75 56 71.09375 56 
Q 79.640625 56 84.28125 50.015625 
Q 88.921875 44.046875 88.921875 33.015625 
L 88.921875 0 
L 79.890625 0 
L 79.890625 32.71875 
Q 79.890625 40.578125 77.09375 44.375 
Q 74.3125 48.1875 68.609375 48.1875 
Q 61.625 48.1875 57.5625 43.546875 
Q 53.515625 38.921875 53.515625 30.90625 
L 53.515625 0 
L 44.484375 0 
L 44.484375 32.71875 
Q 44.484375 40.625 41.703125 44.40625 
Q 38.921875 48.1875 33.109375 48.1875 
Q 26.21875 48.1875 22.15625 43.53125 
Q 18.109375 38.875 18.109375 30.90625 
L 18.109375 0 
L 9.078125 0 
L 9.078125 54.6875 
L 18.109375 54.6875 
L 18.109375 46.1875 
Q 21.1875 51.21875 25.484375 53.609375 
Q 29.78125 56 35.6875 56 
Q 41.65625 56 45.828125 52.96875 
Q 50 49.953125 52 44.1875 
z
" id="DejaVuSans-109"/>
       </defs>
       <use xlink:href="#DejaVuSans-105"/>
       <use x="27.783203" xlink:href="#DejaVuSans-110"/>
       <use x="91.162109" xlink:href="#DejaVuSans-115"/>
       <use x="143.261719" xlink:href="#DejaVuSans-116"/>
       <use x="182.470703" xlink:href="#DejaVuSans-114"/>
       <use x="223.583984" xlink:href="#DejaVuSans-117"/>
       <use x="286.962891" xlink:href="#DejaVuSans-109"/>
       <use x="384.375" xlink:href="#DejaVuSans-101"/>
       <use x="445.898438" xlink:href="#DejaVuSans-110"/>
       <use x="509.277344" xlink:href="#DejaVuSans-116"/>
       <use x="548.486328" xlink:href="#DejaVuSans-97"/>
       <use x="609.765625" xlink:href="#DejaVuSans-108"/>
       <use x="637.548828" xlink:href="#DejaVuSans-110"/>
       <use x="700.927734" xlink:href="#DejaVuSans-101"/>
       <use x="762.451172" xlink:href="#DejaVuSans-115"/>
       <use x="814.550781" xlink:href="#DejaVuSans-115"/>
      </g>
     </g>
    </g>
    <g id="xtick_5">
     <g id="line2d_5">
      <path clip-path="url(#p23cc0edd72)" d="M 276.502268 243.946014 
L 76.143174 340.433869 
" style="fill:none;stroke:#b0b0b0;stroke-linecap:square;stroke-width:0.8;"/>
     </g>
     <g id="text_5">
      <!-- liveness -->
      <g transform="translate(37.180234 350.095428)scale(0.13 -0.13)">
       <defs>
        <path d="M 2.984375 54.6875 
L 12.5 54.6875 
L 29.59375 8.796875 
L 46.6875 54.6875 
L 56.203125 54.6875 
L 35.6875 0 
L 23.484375 0 
z
" id="DejaVuSans-118"/>
       </defs>
       <use xlink:href="#DejaVuSans-108"/>
       <use x="27.783203" xlink:href="#DejaVuSans-105"/>
       <use x="55.566406" xlink:href="#DejaVuSans-118"/>
       <use x="114.746094" xlink:href="#DejaVuSans-101"/>
       <use x="176.269531" xlink:href="#DejaVuSans-110"/>
       <use x="239.648438" xlink:href="#DejaVuSans-101"/>
       <use x="301.171875" xlink:href="#DejaVuSans-115"/>
       <use x="353.271484" xlink:href="#DejaVuSans-115"/>
      </g>
     </g>
    </g>
    <g id="xtick_6">
     <g id="line2d_6">
      <path clip-path="url(#p23cc0edd72)" d="M 276.502268 243.946014 
L 227.017659 460.752255 
" style="fill:none;stroke:#b0b0b0;stroke-linecap:square;stroke-width:0.8;"/>
     </g>
     <g id="text_6">
      <!-- speechiness -->
      <g transform="translate(184.000491 477.988434)scale(0.13 -0.13)">
       <defs>
        <path d="M 18.109375 8.203125 
L 18.109375 -20.796875 
L 9.078125 -20.796875 
L 9.078125 54.6875 
L 18.109375 54.6875 
L 18.109375 46.390625 
Q 20.953125 51.265625 25.265625 53.625 
Q 29.59375 56 35.59375 56 
Q 45.5625 56 51.78125 48.09375 
Q 58.015625 40.1875 58.015625 27.296875 
Q 58.015625 14.40625 51.78125 6.484375 
Q 45.5625 -1.421875 35.59375 -1.421875 
Q 29.59375 -1.421875 25.265625 0.953125 
Q 20.953125 3.328125 18.109375 8.203125 
z
M 48.6875 27.296875 
Q 48.6875 37.203125 44.609375 42.84375 
Q 40.53125 48.484375 33.40625 48.484375 
Q 26.265625 48.484375 22.1875 42.84375 
Q 18.109375 37.203125 18.109375 27.296875 
Q 18.109375 17.390625 22.1875 11.75 
Q 26.265625 6.109375 33.40625 6.109375 
Q 40.53125 6.109375 44.609375 11.75 
Q 48.6875 17.390625 48.6875 27.296875 
z
" id="DejaVuSans-112"/>
        <path d="M 54.890625 33.015625 
L 54.890625 0 
L 45.90625 0 
L 45.90625 32.71875 
Q 45.90625 40.484375 42.875 44.328125 
Q 39.84375 48.1875 33.796875 48.1875 
Q 26.515625 48.1875 22.3125 43.546875 
Q 18.109375 38.921875 18.109375 30.90625 
L 18.109375 0 
L 9.078125 0 
L 9.078125 75.984375 
L 18.109375 75.984375 
L 18.109375 46.1875 
Q 21.34375 51.125 25.703125 53.5625 
Q 30.078125 56 35.796875 56 
Q 45.21875 56 50.046875 50.171875 
Q 54.890625 44.34375 54.890625 33.015625 
z
" id="DejaVuSans-104"/>
       </defs>
       <use xlink:href="#DejaVuSans-115"/>
       <use x="52.099609" xlink:href="#DejaVuSans-112"/>
       <use x="115.576172" xlink:href="#DejaVuSans-101"/>
       <use x="177.099609" xlink:href="#DejaVuSans-101"/>
       <use x="238.623047" xlink:href="#DejaVuSans-99"/>
       <use x="293.603516" xlink:href="#DejaVuSans-104"/>
       <use x="356.982422" xlink:href="#DejaVuSans-105"/>
       <use x="384.765625" xlink:href="#DejaVuSans-110"/>
       <use x="448.144531" xlink:href="#DejaVuSans-101"/>
       <use x="509.667969" xlink:href="#DejaVuSans-115"/>
       <use x="561.767578" xlink:href="#DejaVuSans-115"/>
      </g>
     </g>
    </g>
    <g id="xtick_7">
     <g id="line2d_7">
      <path clip-path="url(#p23cc0edd72)" d="M 276.502268 243.946014 
L 415.155064 417.81112 
" style="fill:none;stroke:#b0b0b0;stroke-linecap:square;stroke-width:0.8;"/>
     </g>
     <g id="text_7">
      <!-- valence -->
      <g transform="translate(398.55525 432.343949)scale(0.13 -0.13)">
       <use xlink:href="#DejaVuSans-118"/>
       <use x="59.179688" xlink:href="#DejaVuSans-97"/>
       <use x="120.458984" xlink:href="#DejaVuSans-108"/>
       <use x="148.242188" xlink:href="#DejaVuSans-101"/>
       <use x="209.765625" xlink:href="#DejaVuSans-110"/>
       <use x="273.144531" xlink:href="#DejaVuSans-99"/>
       <use x="328.125" xlink:href="#DejaVuSans-101"/>
      </g>
     </g>
    </g>
   </g>
   <g id="matplotlib.axis_2">
    <g id="ytick_1">
     <g id="line2d_8">
      <path clip-path="url(#p23cc0edd72)" d="M 320.978632 243.946014 
C 320.978632 238.105431 319.828165 232.321641 317.593071 226.925646 
C 315.357976 221.529652 312.081722 216.626391 307.951807 212.496475 
C 303.821891 208.36656 298.918631 205.090306 293.522636 202.855212 
C 288.126641 200.620118 282.342851 199.46965 276.502268 199.46965 
C 270.661686 199.46965 264.877896 200.620118 259.481901 202.855212 
C 254.085906 205.090306 249.182646 208.36656 245.05273 212.496475 
C 240.922815 216.626391 237.646561 221.529652 235.411466 226.925646 
C 233.176372 232.321641 232.025905 238.105431 232.025905 243.946014 
C 232.025905 249.786596 233.176372 255.570387 235.411466 260.966381 
C 237.646561 266.362376 240.922815 271.265637 245.05273 275.395552 
C 249.182646 279.525468 254.085906 282.801722 259.481901 285.036816 
C 264.877896 287.27191 270.661686 288.422377 276.502268 288.422377 
C 282.342851 288.422377 288.126641 287.27191 293.522636 285.036816 
C 298.918631 282.801722 303.821891 279.525468 307.951807 275.395552 
C 312.081722 271.265637 315.357976 266.362376 317.593071 260.966381 
C 319.828165 255.570387 320.978632 249.786596 320.978632 243.946014 
" style="fill:none;stroke:#b0b0b0;stroke-linecap:square;stroke-width:0.8;"/>
     </g>
     <g id="text_8">
      <!-- 0.2 -->
      <g style="fill:#808080;" transform="translate(261.290456 283.244499)scale(0.12 -0.12)">
       <defs>
        <path d="M 31.78125 66.40625 
Q 24.171875 66.40625 20.328125 58.90625 
Q 16.5 51.421875 16.5 36.375 
Q 16.5 21.390625 20.328125 13.890625 
Q 24.171875 6.390625 31.78125 6.390625 
Q 39.453125 6.390625 43.28125 13.890625 
Q 47.125 21.390625 47.125 36.375 
Q 47.125 51.421875 43.28125 58.90625 
Q 39.453125 66.40625 31.78125 66.40625 
z
M 31.78125 74.21875 
Q 44.046875 74.21875 50.515625 64.515625 
Q 56.984375 54.828125 56.984375 36.375 
Q 56.984375 17.96875 50.515625 8.265625 
Q 44.046875 -1.421875 31.78125 -1.421875 
Q 19.53125 -1.421875 13.0625 8.265625 
Q 6.59375 17.96875 6.59375 36.375 
Q 6.59375 54.828125 13.0625 64.515625 
Q 19.53125 74.21875 31.78125 74.21875 
z
" id="DejaVuSans-48"/>
        <path d="M 10.6875 12.40625 
L 21 12.40625 
L 21 0 
L 10.6875 0 
z
" id="DejaVuSans-46"/>
        <path d="M 19.1875 8.296875 
L 53.609375 8.296875 
L 53.609375 0 
L 7.328125 0 
L 7.328125 8.296875 
Q 12.9375 14.109375 22.625 23.890625 
Q 32.328125 33.6875 34.8125 36.53125 
Q 39.546875 41.84375 41.421875 45.53125 
Q 43.3125 49.21875 43.3125 52.78125 
Q 43.3125 58.59375 39.234375 62.25 
Q 35.15625 65.921875 28.609375 65.921875 
Q 23.96875 65.921875 18.8125 64.3125 
Q 13.671875 62.703125 7.8125 59.421875 
L 7.8125 69.390625 
Q 13.765625 71.78125 18.9375 73 
Q 24.125 74.21875 28.421875 74.21875 
Q 39.75 74.21875 46.484375 68.546875 
Q 53.21875 62.890625 53.21875 53.421875 
Q 53.21875 48.921875 51.53125 44.890625 
Q 49.859375 40.875 45.40625 35.40625 
Q 44.1875 33.984375 37.640625 27.21875 
Q 31.109375 20.453125 19.1875 8.296875 
z
" id="DejaVuSans-50"/>
       </defs>
       <use xlink:href="#DejaVuSans-48"/>
       <use x="63.623047" xlink:href="#DejaVuSans-46"/>
       <use x="95.410156" xlink:href="#DejaVuSans-50"/>
      </g>
     </g>
    </g>
    <g id="ytick_2">
     <g id="line2d_9">
      <path clip-path="url(#p23cc0edd72)" d="M 365.454996 243.946014 
C 365.454996 232.264849 363.154061 220.697268 358.683873 209.905279 
C 354.213684 199.113289 347.661176 189.306768 339.401345 181.046937 
C 331.141514 172.787106 321.334993 166.234598 310.543003 161.76441 
C 299.751014 157.294221 288.183434 154.993286 276.502268 154.993286 
C 264.821103 154.993286 253.253523 157.294221 242.461534 161.76441 
C 231.669544 166.234598 221.863023 172.787106 213.603192 181.046937 
C 205.343361 189.306768 198.790853 199.113289 194.320664 209.905279 
C 189.850476 220.697268 187.549541 232.264849 187.549541 243.946014 
C 187.549541 255.627179 189.850476 267.194759 194.320664 277.986749 
C 198.790853 288.778738 205.343361 298.585259 213.603192 306.84509 
C 221.863023 315.104921 231.669544 321.657429 242.461534 326.127618 
C 253.253523 330.597806 264.821103 332.898741 276.502268 332.898741 
C 288.183434 332.898741 299.751014 330.597806 310.543003 326.127618 
C 321.334993 321.657429 331.141514 315.104921 339.401345 306.84509 
C 347.661176 298.585259 354.213684 288.778738 358.683873 277.986749 
C 363.154061 267.194759 365.454996 255.627179 365.454996 243.946014 
" style="fill:none;stroke:#b0b0b0;stroke-linecap:square;stroke-width:0.8;"/>
     </g>
     <g id="text_9">
      <!-- 0.4 -->
      <g style="fill:#808080;" transform="translate(246.078644 325.03861)scale(0.12 -0.12)">
       <defs>
        <path d="M 37.796875 64.3125 
L 12.890625 25.390625 
L 37.796875 25.390625 
z
M 35.203125 72.90625 
L 47.609375 72.90625 
L 47.609375 25.390625 
L 58.015625 25.390625 
L 58.015625 17.1875 
L 47.609375 17.1875 
L 47.609375 0 
L 37.796875 0 
L 37.796875 17.1875 
L 4.890625 17.1875 
L 4.890625 26.703125 
z
" id="DejaVuSans-52"/>
       </defs>
       <use xlink:href="#DejaVuSans-48"/>
       <use x="63.623047" xlink:href="#DejaVuSans-46"/>
       <use x="95.410156" xlink:href="#DejaVuSans-52"/>
      </g>
     </g>
    </g>
    <g id="ytick_3">
     <g id="line2d_10">
      <path clip-path="url(#p23cc0edd72)" d="M 409.931359 243.946014 
C 409.931359 226.424266 406.479957 209.072895 399.774675 192.884911 
C 393.069392 176.696927 383.24063 161.987145 370.850883 149.597399 
C 358.461137 137.207652 343.751355 127.37889 327.563371 120.673608 
C 311.375387 113.968325 294.024016 110.516923 276.502268 110.516923 
C 258.980521 110.516923 241.62915 113.968325 225.441166 120.673608 
C 209.253182 127.37889 194.5434 137.207652 182.153654 149.597399 
C 169.763907 161.987145 159.935145 176.696927 153.229862 192.884911 
C 146.52458 209.072895 143.073178 226.424266 143.073178 243.946014 
C 143.073178 261.467761 146.52458 278.819132 153.229862 295.007116 
C 159.935145 311.1951 169.763907 325.904882 182.153654 338.294629 
C 194.5434 350.684375 209.253182 360.513137 225.441166 367.21842 
C 241.62915 373.923702 258.980521 377.375105 276.502268 377.375105 
C 294.024016 377.375105 311.375387 373.923702 327.563371 367.21842 
C 343.751355 360.513137 358.461137 350.684375 370.850883 338.294629 
C 383.24063 325.904882 393.069392 311.1951 399.774675 295.007116 
C 406.479957 278.819132 409.931359 261.467761 409.931359 243.946014 
" style="fill:none;stroke:#b0b0b0;stroke-linecap:square;stroke-width:0.8;"/>
     </g>
     <g id="text_10">
      <!-- 0.6 -->
      <g style="fill:#808080;" transform="translate(230.866832 366.832721)scale(0.12 -0.12)">
       <defs>
        <path d="M 33.015625 40.375 
Q 26.375 40.375 22.484375 35.828125 
Q 18.609375 31.296875 18.609375 23.390625 
Q 18.609375 15.53125 22.484375 10.953125 
Q 26.375 6.390625 33.015625 6.390625 
Q 39.65625 6.390625 43.53125 10.953125 
Q 47.40625 15.53125 47.40625 23.390625 
Q 47.40625 31.296875 43.53125 35.828125 
Q 39.65625 40.375 33.015625 40.375 
z
M 52.59375 71.296875 
L 52.59375 62.3125 
Q 48.875 64.0625 45.09375 64.984375 
Q 41.3125 65.921875 37.59375 65.921875 
Q 27.828125 65.921875 22.671875 59.328125 
Q 17.53125 52.734375 16.796875 39.40625 
Q 19.671875 43.65625 24.015625 45.921875 
Q 28.375 48.1875 33.59375 48.1875 
Q 44.578125 48.1875 50.953125 41.515625 
Q 57.328125 34.859375 57.328125 23.390625 
Q 57.328125 12.15625 50.6875 5.359375 
Q 44.046875 -1.421875 33.015625 -1.421875 
Q 20.359375 -1.421875 13.671875 8.265625 
Q 6.984375 17.96875 6.984375 36.375 
Q 6.984375 53.65625 15.1875 63.9375 
Q 23.390625 74.21875 37.203125 74.21875 
Q 40.921875 74.21875 44.703125 73.484375 
Q 48.484375 72.75 52.59375 71.296875 
z
" id="DejaVuSans-54"/>
       </defs>
       <use xlink:href="#DejaVuSans-48"/>
       <use x="63.623047" xlink:href="#DejaVuSans-46"/>
       <use x="95.410156" xlink:href="#DejaVuSans-54"/>
      </g>
     </g>
    </g>
    <g id="ytick_4">
     <g id="line2d_11">
      <path clip-path="url(#p23cc0edd72)" d="M 454.407723 243.946014 
C 454.407723 220.583683 449.805853 197.448522 440.865477 175.864544 
C 431.9251 154.280565 418.820084 134.667523 402.300422 118.14786 
C 385.78076 101.628198 366.167717 88.523182 344.583738 79.582806 
C 322.99976 70.642429 299.864599 66.040559 276.502268 66.040559 
C 253.139938 66.040559 230.004777 70.642429 208.420799 79.582806 
C 186.83682 88.523182 167.223777 101.628198 150.704115 118.14786 
C 134.184453 134.667523 121.079437 154.280565 112.13906 175.864544 
C 103.198684 197.448522 98.596814 220.583683 98.596814 243.946014 
C 98.596814 267.308344 103.198684 290.443505 112.13906 312.027484 
C 121.079437 333.611462 134.184453 353.224505 150.704115 369.744167 
C 167.223777 386.263829 186.83682 399.368845 208.420799 408.309222 
C 230.004777 417.249599 253.139938 421.851468 276.502268 421.851468 
C 299.864599 421.851468 322.99976 417.249599 344.583738 408.309222 
C 366.167717 399.368845 385.78076 386.263829 402.300422 369.744167 
C 418.820084 353.224505 431.9251 333.611462 440.865477 312.027484 
C 449.805853 290.443505 454.407723 267.308344 454.407723 243.946014 
" style="fill:none;stroke:#b0b0b0;stroke-linecap:square;stroke-width:0.8;"/>
     </g>
     <g id="text_11">
      <!-- 0.8 -->
      <g style="fill:#808080;" transform="translate(215.655019 408.626832)scale(0.12 -0.12)">
       <defs>
        <path d="M 31.78125 34.625 
Q 24.75 34.625 20.71875 30.859375 
Q 16.703125 27.09375 16.703125 20.515625 
Q 16.703125 13.921875 20.71875 10.15625 
Q 24.75 6.390625 31.78125 6.390625 
Q 38.8125 6.390625 42.859375 10.171875 
Q 46.921875 13.96875 46.921875 20.515625 
Q 46.921875 27.09375 42.890625 30.859375 
Q 38.875 34.625 31.78125 34.625 
z
M 21.921875 38.8125 
Q 15.578125 40.375 12.03125 44.71875 
Q 8.5 49.078125 8.5 55.328125 
Q 8.5 64.0625 14.71875 69.140625 
Q 20.953125 74.21875 31.78125 74.21875 
Q 42.671875 74.21875 48.875 69.140625 
Q 55.078125 64.0625 55.078125 55.328125 
Q 55.078125 49.078125 51.53125 44.71875 
Q 48 40.375 41.703125 38.8125 
Q 48.828125 37.15625 52.796875 32.3125 
Q 56.78125 27.484375 56.78125 20.515625 
Q 56.78125 9.90625 50.3125 4.234375 
Q 43.84375 -1.421875 31.78125 -1.421875 
Q 19.734375 -1.421875 13.25 4.234375 
Q 6.78125 9.90625 6.78125 20.515625 
Q 6.78125 27.484375 10.78125 32.3125 
Q 14.796875 37.15625 21.921875 38.8125 
z
M 18.3125 54.390625 
Q 18.3125 48.734375 21.84375 45.5625 
Q 25.390625 42.390625 31.78125 42.390625 
Q 38.140625 42.390625 41.71875 45.5625 
Q 45.3125 48.734375 45.3125 54.390625 
Q 45.3125 60.0625 41.71875 63.234375 
Q 38.140625 66.40625 31.78125 66.40625 
Q 25.390625 66.40625 21.84375 63.234375 
Q 18.3125 60.0625 18.3125 54.390625 
z
" id="DejaVuSans-56"/>
       </defs>
       <use xlink:href="#DejaVuSans-48"/>
       <use x="63.623047" xlink:href="#DejaVuSans-46"/>
       <use x="95.410156" xlink:href="#DejaVuSans-56"/>
      </g>
     </g>
    </g>
   </g>
   <g id="line2d_12">
    <path clip-path="url(#p23cc0edd72)" d="M 349.899228 243.946014 
L 352.786309 148.288852 
L 247.986965 119.012305 
L 264.429161 238.131911 
L 244.857028 259.185559 
L 272.859633 259.905441 
L 345.531358 330.505755 
L 349.899228 243.946014 
" style="fill:none;stroke:#808080;stroke-linecap:square;stroke-width:2;"/>
    <defs>
     <path d="M 0 3 
C 0.795609 3 1.55874 2.683901 2.12132 2.12132 
C 2.683901 1.55874 3 0.795609 3 0 
C 3 -0.795609 2.683901 -1.55874 2.12132 -2.12132 
C 1.55874 -2.683901 0.795609 -3 0 -3 
C -0.795609 -3 -1.55874 -2.683901 -2.12132 -2.12132 
C -2.683901 -1.55874 -3 -0.795609 -3 0 
C -3 0.795609 -2.683901 1.55874 -2.12132 2.12132 
C -1.55874 2.683901 -0.795609 3 0 3 
z
" id="mdcae24bc44" style="stroke:#808080;"/>
    </defs>
    <g clip-path="url(#p23cc0edd72)">
     <use style="fill:#808080;stroke:#808080;" x="349.899228" xlink:href="#mdcae24bc44" y="243.946014"/>
     <use style="fill:#808080;stroke:#808080;" x="352.786309" xlink:href="#mdcae24bc44" y="148.288852"/>
     <use style="fill:#808080;stroke:#808080;" x="247.986965" xlink:href="#mdcae24bc44" y="119.012305"/>
     <use style="fill:#808080;stroke:#808080;" x="264.429161" xlink:href="#mdcae24bc44" y="238.131911"/>
     <use style="fill:#808080;stroke:#808080;" x="244.857028" xlink:href="#mdcae24bc44" y="259.185559"/>
     <use style="fill:#808080;stroke:#808080;" x="272.859633" xlink:href="#mdcae24bc44" y="259.905441"/>
     <use style="fill:#808080;stroke:#808080;" x="345.531358" xlink:href="#mdcae24bc44" y="330.505755"/>
     <use style="fill:#808080;stroke:#808080;" x="349.899228" xlink:href="#mdcae24bc44" y="243.946014"/>
    </g>
   </g>
   <g id="patch_4">
    <path d="M 498.884087 243.946014 
C 498.884087 214.743101 493.13175 185.82415 481.956279 158.844176 
C 470.780808 131.864203 454.399538 107.3479 433.74996 86.698322 
C 413.100382 66.048744 388.584079 49.667474 361.604106 38.492004 
C 334.624133 27.316533 305.705181 21.564196 276.502268 21.564196 
C 247.299356 21.564196 218.380404 27.316533 191.400431 38.492004 
C 164.420458 49.667474 139.904155 66.048744 119.254577 86.698322 
C 98.604999 107.3479 82.223729 131.864203 71.048258 158.844176 
C 59.872787 185.82415 54.12045 214.743101 54.12045 243.946014 
C 54.12045 273.148927 59.872787 302.067878 71.048258 329.047851 
C 82.223729 356.027825 98.604999 380.544128 119.254577 401.193705 
C 139.904155 421.843283 164.420458 438.224553 191.400431 449.400024 
C 218.380404 460.575495 247.299356 466.327832 276.502268 466.327832 
C 305.705181 466.327832 334.624133 460.575495 361.604106 449.400024 
C 388.584079 438.224553 413.100382 421.843283 433.74996 401.193705 
C 454.399538 380.544128 470.780808 356.027825 481.956279 329.047851 
C 493.13175 302.067878 498.884087 273.148927 498.884087 243.946014 
" style="fill:none;stroke:#000000;stroke-linecap:square;stroke-linejoin:miter;stroke-width:0.8;"/>
   </g>
   <g id="legend_1">
    <g id="patch_5">
     <path d="M 16.607751 444.529593 
L 91.596814 444.529593 
Q 93.596814 444.529593 93.596814 442.529593 
L 93.596814 428.851468 
Q 93.596814 426.851468 91.596814 426.851468 
L 16.607751 426.851468 
Q 14.607751 426.851468 14.607751 428.851468 
L 14.607751 442.529593 
Q 14.607751 444.529593 16.607751 444.529593 
z
" style="fill:#ffffff;opacity:0.8;stroke:#cccccc;stroke-linejoin:miter;"/>
    </g>
    <g id="line2d_13">
     <path d="M 18.607751 434.949906 
L 38.607751 434.949906 
" style="fill:none;stroke:#808080;stroke-linecap:square;stroke-width:2;"/>
    </g>
    <g id="line2d_14">
     <g>
      <use style="fill:#808080;stroke:#808080;" x="28.607751" xlink:href="#mdcae24bc44" y="434.949906"/>
     </g>
    </g>
    <g id="text_12">
     <!-- Features -->
     <g transform="translate(46.607751 438.449906)scale(0.1 -0.1)">
      <defs>
       <path d="M 9.8125 72.90625 
L 51.703125 72.90625 
L 51.703125 64.59375 
L 19.671875 64.59375 
L 19.671875 43.109375 
L 48.578125 43.109375 
L 48.578125 34.8125 
L 19.671875 34.8125 
L 19.671875 0 
L 9.8125 0 
z
" id="DejaVuSans-70"/>
      </defs>
      <use xlink:href="#DejaVuSans-70"/>
      <use x="52.019531" xlink:href="#DejaVuSans-101"/>
      <use x="113.542969" xlink:href="#DejaVuSans-97"/>
      <use x="174.822266" xlink:href="#DejaVuSans-116"/>
      <use x="214.03125" xlink:href="#DejaVuSans-117"/>
      <use x="277.410156" xlink:href="#DejaVuSans-114"/>
      <use x="316.273438" xlink:href="#DejaVuSans-101"/>
      <use x="377.796875" xlink:href="#DejaVuSans-115"/>
     </g>
    </g>
   </g>
  </g>
 </g>
 <defs>
  <clipPath id="p23cc0edd72">
   <path d="M 498.884087 243.946014 
C 498.884087 214.743101 493.13175 185.82415 481.956279 158.844176 
C 470.780808 131.864203 454.399538 107.3479 433.74996 86.698322 
C 413.100382 66.048744 388.584079 49.667474 361.604106 38.492004 
C 334.624133 27.316533 305.705181 21.564196 276.502268 21.564196 
C 247.299356 21.564196 218.380404 27.316533 191.400431 38.492004 
C 164.420458 49.667474 139.904155 66.048744 119.254577 86.698322 
C 98.604999 107.3479 82.223729 131.864203 71.048258 158.844176 
C 59.872787 185.82415 54.12045 214.743101 54.12045 243.946014 
C 54.12045 273.148927 59.872787 302.067878 71.048258 329.047851 
C 82.223729 356.027825 98.604999 380.544128 119.254577 401.193705 
C 139.904155 421.843283 164.420458 438.224553 191.400431 449.400024 
C 218.380404 460.575495 247.299356 466.327832 276.502268 466.327832 
C 305.705181 466.327832 334.624133 460.575495 361.604106 449.400024 
C 388.584079 438.224553 413.100382 421.843283 433.74996 401.193705 
C 454.399538 380.544128 470.780808 356.027825 481.956279 329.047851 
C 493.13175 302.067878 498.884087 273.148927 498.884087 243.946014 
M 276.502268 243.946014 
C 276.502268 243.946014 276.502268 243.946014 276.502268 243.946014 
C 276.502268 243.946014 276.502268 243.946014 276.502268 243.946014 
C 276.502268 243.946014 276.502268 243.946014 276.502268 243.946014 
C 276.502268 243.946014 276.502268 243.946014 276.502268 243.946014 
C 276.502268 243.946014 276.502268 243.946014 276.502268 243.946014 
C 276.502268 243.946014 276.502268 243.946014 276.502268 243.946014 
C 276.502268 243.946014 276.502268 243.946014 276.502268 243.946014 
C 276.502268 243.946014 276.502268 243.946014 276.502268 243.946014 
C 276.502268 243.946014 276.502268 243.946014 276.502268 243.946014 
C 276.502268 243.946014 276.502268 243.946014 276.502268 243.946014 
C 276.502268 243.946014 276.502268 243.946014 276.502268 243.946014 
C 276.502268 243.946014 276.502268 243.946014 276.502268 243.946014 
C 276.502268 243.946014 276.502268 243.946014 276.502268 243.946014 
C 276.502268 243.946014 276.502268 243.946014 276.502268 243.946014 
C 276.502268 243.946014 276.502268 243.946014 276.502268 243.946014 
C 276.502268 243.946014 276.502268 243.946014 276.502268 243.946014 
M 498.884087 243.946014 
z
"/>
  </clipPath>
 </defs>
</svg>
